<?xml version="1.0" standalone="no"?>
<!DOCTYPE svg PUBLIC "-//W3C//DTD SVG 20010904//EN"
 "http://www.w3.org/TR/2001/REC-SVG-20010904/DTD/svg10.dtd">
<svg version="1.0" xmlns="http://www.w3.org/2000/svg"
 width="2000.000000pt" height="2000.000000pt" viewBox="0 0 2000.000000 2000.000000"
 preserveAspectRatio="xMidYMid meet">

<g transform="translate(0.000000,2000.000000) scale(0.100000,-0.100000)"
fill="#000000" stroke="none">
<path d="M1610 11520 l0 -8480 1285 0 1285 0 0 -1515 c0 -833 2 -1515 5 -1515
3 0 999 682 2214 1515 l2210 1515 4890 0 4891 0 0 8480 0 8480 -8390 0 -8390
0 0 -8480z m5540 4560 c617 -32 1147 -162 1713 -420 75 -34 137 -67 137 -72 0
-6 -41 -53 -91 -107 -598 -630 -1079 -1478 -1329 -2339 -18 -61 -24 -72 -38
-67 -72 29 -176 60 -282 82 -110 23 -148 27 -315 27 -141 0 -216 -5 -290 -18
-690 -126 -1206 -627 -1357 -1319 -19 -89 -22 -132 -22 -327 0 -197 3 -238 22
-330 114 -526 454 -959 925 -1180 401 -187 841 -211 1264 -66 l72 24 16 -56
c249 -867 719 -1698 1329 -2350 53 -57 96 -107 96 -111 0 -4 -51 -32 -112 -61
-1248 -585 -2676 -582 -3918 7 -277 132 -632 353 -872 545 -869 695 -1455
1670 -1653 2753 -55 301 -69 462 -69 825 0 363 14 527 69 825 325 1762 1653
3174 3390 3606 283 70 647 122 925 132 47 2 110 4 140 5 30 1 143 -3 250 -8z
m6235 0 c447 -24 830 -95 1235 -230 767 -255 1447 -709 1991 -1328 1121 -1275
1436 -3089 812 -4672 -568 -1440 -1825 -2497 -3337 -2805 -600 -122 -1218
-122 -1821 0 -388 78 -713 188 -1070 359 -1388 669 -2344 1986 -2549 3511 -30
225 -39 403 -33 704 6 305 17 431 62 691 244 1406 1149 2629 2430 3280 224
114 376 177 625 260 460 154 880 225 1410 238 30 1 141 -3 245 -8z"/>
<path d="M12987 13180 c-401 -51 -744 -222 -1018 -508 -386 -403 -543 -952
-429 -1500 63 -299 212 -580 429 -805 271 -282 606 -452 988 -502 762 -100
1487 330 1774 1052 133 336 144 765 28 1123 -42 132 -146 337 -226 450 -81
113 -248 284 -355 364 -216 160 -462 266 -723 311 -106 19 -371 27 -468 15z"/>
</g>
</svg>
